<svg version="1.1" id="Layer_1" xmlns="http://www.w3.org/2000/svg" xmlns:xlink="http://www.w3.org/1999/xlink" x="0px" y="0px"
	 width="100%" viewBox="0 0 413 484" enable-background="new 0 0 413 484" xml:space="preserve">
<path fill="#47704C" opacity="1.000000" stroke="none" 
	d="
M216.000000,485.000000 
	C144.019913,485.000000 72.539833,485.000000 1.029873,485.000000 
	C1.029873,323.731537 1.029873,162.463043 1.029873,1.097278 
	C138.563400,1.097278 276.126892,1.097278 413.845215,1.097278 
	C413.845215,162.333221 413.845215,323.666595 413.845215,485.000000 
	C348.129700,485.000000 282.314850,485.000000 216.000000,485.000000 
M314.867981,251.358917 
	C315.685822,249.911896 316.542511,248.485306 317.315674,247.014786 
	C328.584473,225.581528 334.542816,202.728134 337.309418,178.676895 
	C340.326233,152.449875 339.726044,126.627533 332.916168,101.111038 
	C331.147552,94.484032 329.401917,87.605949 323.589813,82.827225 
	C308.768158,70.640831 291.010406,64.915489 272.801544,61.230751 
	C256.934143,58.019836 240.668259,56.069599 224.493423,55.258793 
	C202.261795,54.144379 179.947556,54.703682 157.840088,58.076740 
	C136.404099,61.347336 115.525948,66.435570 96.820946,78.033943 
	C91.277473,81.471275 86.509979,85.620293 84.044395,92.082695 
	C78.175583,107.465126 75.863518,123.523338 75.080315,139.782669 
	C74.119759,159.723938 75.970482,179.461761 79.815331,199.121002 
	C84.349335,222.304047 93.151154,243.556717 106.364044,262.986725 
	C118.258316,280.477692 132.651794,295.742218 148.773941,309.448578 
	C164.307907,322.654877 181.435303,333.314270 199.583084,342.457184 
	C204.713120,345.041687 209.491776,344.648499 214.679291,342.134369 
	C233.330338,333.094971 250.456665,321.889404 266.251343,308.425720 
	C285.362762,292.134827 301.664673,273.578979 314.867981,251.358917 
M312.790436,365.690979 
	C308.939484,363.829956 305.196411,360.700226 301.216003,360.361725 
	C291.790863,359.560303 282.251801,360.008301 272.762177,360.161957 
	C271.477051,360.182770 270.211517,361.414978 268.936890,362.086243 
	C268.921204,362.626343 268.905487,363.166443 268.889771,363.706573 
	C273.450867,363.596100 276.001038,365.320465 275.970459,369.770264 
	C275.901825,379.762665 276.095856,389.759857 275.820618,399.745117 
	C275.772217,401.501862 274.042419,403.263062 272.937225,404.920959 
	C272.262726,405.932800 271.298035,406.751221 270.463684,407.656525 
	C271.657928,408.349213 272.829590,409.591797 274.050232,409.641937 
	C280.200806,409.894501 286.406586,410.318176 292.513763,409.781189 
	C303.421295,408.822113 313.236115,405.314362 317.816254,394.136200 
	C321.950287,384.046814 320.567810,374.577179 312.790436,365.690979 
M330.723633,392.260681 
	C330.413910,395.407745 330.984436,399.063843 329.542999,401.556488 
	C328.144806,403.974487 324.680359,405.197632 322.123291,406.945496 
	C322.699982,407.651215 323.276672,408.356964 323.853333,409.062714 
	C333.562988,410.210297 343.306671,411.052002 352.938049,408.379364 
	C362.375641,405.760468 366.481995,400.018799 364.665558,390.599304 
	C363.962250,386.952179 360.672272,383.803894 358.214630,379.875153 
	C358.149292,379.987732 358.442719,379.191681 358.974060,378.614655 
	C362.269379,375.036163 362.945923,370.885162 361.053345,366.583801 
	C359.035889,361.998718 355.023224,360.092316 350.146484,360.050873 
	C342.984253,359.990082 335.818970,359.940002 328.660126,360.105499 
	C327.098877,360.141602 325.559143,361.106750 324.009491,361.644012 
	C323.949158,362.141785 323.888855,362.639557 323.828522,363.137329 
	C331.369598,364.279633 331.125458,369.408020 330.846344,374.830353 
	C330.564209,380.311890 330.753357,385.817627 330.723633,392.260681 
M108.377510,406.765625 
	C104.123528,404.183075 103.548973,400.179291 103.968513,395.698029 
	C104.153999,393.716888 104.020561,391.702484 103.980980,389.704163 
	C103.738655,377.469696 96.790451,373.127167 85.660522,378.056091 
	C84.074677,378.758392 81.321289,379.257812 80.313965,378.413177 
	C75.865860,374.683472 71.541847,375.278656 66.852203,377.541046 
	C65.803894,378.046753 63.976776,378.527618 63.320358,378.003265 
	C58.320499,374.009064 54.779171,378.468781 50.292820,379.627472 
	C56.494888,383.114227 54.960579,388.635223 54.969292,393.597748 
	C54.977959,398.534454 56.378330,403.994537 50.178791,406.787994 
	C52.946323,408.830200 64.061043,409.940918 65.731316,408.382843 
	C66.262947,407.886871 66.062401,406.223907 65.726891,405.258270 
	C64.978348,403.103821 63.394550,401.117523 63.131165,398.943970 
	C62.693634,395.333252 63.093563,391.627777 63.016228,387.964813 
	C62.939972,384.353119 64.614174,382.466003 68.160233,381.824310 
	C71.771500,381.170776 73.915459,382.810364 75.249504,385.858215 
	C77.743423,391.555939 75.773293,402.690674 71.624832,406.805573 
	C74.816460,409.999756 84.327461,409.965759 86.970261,407.175690 
	C85.600410,404.733215 83.575569,402.568756 83.214676,400.155518 
	C82.605583,396.082642 82.620064,391.786774 83.238327,387.716187 
	C83.537224,385.748260 85.689194,382.708466 87.204613,382.582062 
	C89.754669,382.369415 93.150803,383.398590 94.946350,385.168274 
	C97.516975,387.701874 95.930336,402.008087 93.828239,405.114960 
	C93.320724,405.865051 94.177299,408.580353 94.314262,408.573425 
	C98.969841,408.337067 103.614265,407.880981 108.377510,406.765625 
M225.951996,413.436035 
	C225.448242,407.038422 222.907059,404.697754 216.065933,404.014008 
	C212.673645,403.674957 209.311157,403.037781 205.935196,402.535492 
	C205.968246,401.962830 206.001312,401.390167 206.034363,400.817474 
	C207.854477,400.201111 210.046921,400.029602 211.420670,398.879883 
	C214.736404,396.104889 218.467896,393.316406 220.490280,389.676849 
	C221.960144,387.031616 221.205078,383.331543 225.113770,381.746155 
	C226.095642,381.347870 226.256287,378.924988 226.832016,377.328125 
	C223.166550,377.328125 220.397522,377.512207 217.666519,377.269043 
	C215.537842,377.079437 213.479752,376.162292 211.349838,375.909607 
	C204.300201,375.073242 198.213654,377.857941 195.555084,382.999023 
	C192.330444,389.234833 194.748795,394.201111 199.118698,398.735626 
	C199.428055,399.056580 199.512100,399.594666 199.807281,400.278015 
	C194.440933,402.882080 196.604202,406.207184 199.294952,409.578705 
	C198.388855,410.393768 197.715271,411.091370 196.952393,411.671539 
	C189.964890,416.985809 193.173935,423.871521 198.307068,426.178650 
	C202.148605,427.905304 207.010086,427.972565 211.375336,427.787262 
	C218.666016,427.477753 224.495956,421.656921 225.951996,413.436035 
M165.000427,392.570374 
	C165.012360,391.071320 165.085968,389.569733 165.023743,388.073761 
	C164.882935,384.688354 166.444244,382.626007 169.785141,382.205963 
	C173.233047,381.772461 176.869965,382.687500 177.211258,386.383759 
	C177.858780,393.395996 181.094040,401.160767 173.532700,406.754547 
	C177.041611,410.065918 187.479248,409.939911 190.347870,406.655792 
	C186.014923,402.585022 186.105865,402.583160 185.962875,395.544312 
	C185.888992,391.907532 185.901596,388.161865 185.044373,384.669281 
	C182.912445,375.983063 177.579178,373.531708 169.346039,376.845001 
	C168.100922,377.346069 166.401886,377.852936 165.310440,377.399689 
	C161.249588,375.713379 154.907623,376.844299 151.870102,380.179169 
	C158.917053,386.564575 159.282928,399.224304 152.644287,406.966125 
	C156.273041,410.111694 166.684952,409.882202 169.325073,406.598450 
	C165.006348,402.843872 165.006348,402.843872 165.000427,392.570374 
M113.283447,390.886261 
	C113.119576,407.051086 125.601456,413.543823 137.744690,407.725677 
	C144.381668,404.545746 147.169601,398.776367 146.994843,391.462555 
	C146.823776,384.302185 143.790619,379.502594 137.661896,377.009308 
	C126.946693,372.650177 116.385063,378.373596 113.283447,390.886261 
M250.523834,375.955872 
	C247.921295,376.015045 245.254700,375.729004 242.728119,376.197662 
	C234.909348,377.647919 229.776077,383.793091 229.246811,391.901581 
	C228.756989,399.405975 233.285568,406.603516 239.864136,408.776428 
	C249.085571,411.822205 259.090515,407.170624 262.053040,398.242554 
	C264.631653,390.471405 262.982574,379.100281 250.523834,375.955872 
z"/>
<path fill="#81C464" opacity="1.000000" stroke="none" 
	d="
M314.683716,251.674286 
	C301.664673,273.578979 285.362762,292.134827 266.251343,308.425720 
	C250.456665,321.889404 233.330338,333.094971 214.679291,342.134369 
	C209.491776,344.648499 204.713120,345.041687 199.583084,342.457184 
	C181.435303,333.314270 164.307907,322.654877 148.773941,309.448578 
	C132.651794,295.742218 118.258316,280.477692 106.364044,262.986725 
	C93.151154,243.556717 84.349335,222.304047 79.815331,199.121002 
	C75.970482,179.461761 74.119759,159.723938 75.080315,139.782669 
	C75.863518,123.523338 78.175583,107.465126 84.044395,92.082695 
	C86.509979,85.620293 91.277473,81.471275 96.820946,78.033943 
	C115.525948,66.435570 136.404099,61.347336 157.840088,58.076740 
	C179.947556,54.703682 202.261795,54.144379 224.493423,55.258793 
	C240.668259,56.069599 256.934143,58.019836 272.801544,61.230751 
	C291.010406,64.915489 308.768158,70.640831 323.589813,82.827225 
	C329.401917,87.605949 331.147552,94.484032 332.916168,101.111038 
	C339.726044,126.627533 340.326233,152.449875 337.309418,178.676895 
	C334.542816,202.728134 328.584473,225.581528 317.315674,247.014786 
	C316.542511,248.485306 315.685822,249.911896 314.683716,251.674286 
M100.793655,109.396294 
	C95.772644,130.184555 94.992012,151.227554 97.200127,172.415482 
	C99.600319,195.446335 104.561493,217.866455 116.186569,238.137482 
	C136.898987,274.254425 166.504135,301.134277 203.318069,320.303009 
	C205.981705,321.689941 208.146957,321.837250 210.681107,320.218079 
	C221.751358,313.144775 233.450836,306.914551 243.874832,298.999329 
	C270.124451,279.067200 291.510376,254.854355 304.505188,224.129425 
	C312.694000,204.767792 316.116577,184.280701 317.485626,163.390350 
	C318.758789,143.963531 317.238922,124.834106 312.326233,105.952858 
	C310.866302,100.341942 307.702301,96.762245 302.639648,94.114319 
	C284.170624,84.454414 264.231506,80.226250 243.791321,77.971909 
	C216.182709,74.926964 188.557449,75.175133 161.053467,79.117798 
	C144.702316,81.461723 128.824692,85.595665 113.777496,92.800850 
	C106.733925,96.173584 102.113838,100.792221 100.793655,109.396294 
z"/>
<path fill="#8E724E" opacity="1.000000" stroke="none" 
	d="
M313.052734,365.939209 
	C320.567810,374.577179 321.950287,384.046814 317.816254,394.136200 
	C313.236115,405.314362 303.421295,408.822113 292.513763,409.781189 
	C286.406586,410.318176 280.200806,409.894501 274.050232,409.641937 
	C272.829590,409.591797 271.657928,408.349213 270.463684,407.656494 
	C271.298035,406.751221 272.262726,405.932800 272.937225,404.920959 
	C274.042419,403.263062 275.772217,401.501862 275.820618,399.745117 
	C276.095856,389.759857 275.901825,379.762665 275.970459,369.770264 
	C276.001038,365.320465 273.450867,363.596100 268.889771,363.706573 
	C268.905487,363.166443 268.921204,362.626343 268.936890,362.086243 
	C270.211517,361.414978 271.477051,360.182770 272.762177,360.161957 
	C282.251801,360.008301 291.790863,359.560303 301.216003,360.361725 
	C305.196411,360.700226 308.939484,363.829956 313.052734,365.939209 
M292.936218,364.437134 
	C285.850372,363.711731 285.059662,364.365570 285.020172,371.372253 
	C284.974274,379.515320 284.961884,387.659332 285.032684,395.802063 
	C285.088470,402.220825 287.383301,404.811157 293.663177,404.690369 
	C299.576813,404.576630 305.112701,402.626068 307.477173,396.682404 
	C308.951080,392.977448 309.504181,388.742828 309.672882,384.712555 
	C310.179962,372.598969 305.434082,366.841888 292.936218,364.437134 
z"/>
<path fill="#8E724E" opacity="1.000000" stroke="none" 
	d="
M330.729858,391.786743 
	C330.753357,385.817627 330.564209,380.311890 330.846344,374.830353 
	C331.125458,369.408020 331.369598,364.279633 323.828522,363.137329 
	C323.888855,362.639557 323.949158,362.141785 324.009491,361.644012 
	C325.559143,361.106750 327.098877,360.141602 328.660126,360.105499 
	C335.818970,359.940002 342.984253,359.990082 350.146484,360.050873 
	C355.023224,360.092316 359.035889,361.998718 361.053345,366.583801 
	C362.945923,370.885162 362.269379,375.036163 358.974060,378.614655 
	C358.442719,379.191681 358.149292,379.987732 358.214630,379.875153 
	C360.672272,383.803894 363.962250,386.952179 364.665558,390.599304 
	C366.481995,400.018799 362.375641,405.760468 352.938049,408.379364 
	C343.306671,411.052002 333.562988,410.210297 323.853333,409.062714 
	C323.276672,408.356964 322.699982,407.651215 322.123291,406.945496 
	C324.680359,405.197632 328.144806,403.974487 329.542999,401.556488 
	C330.984436,399.063843 330.413910,395.407745 330.729858,391.786743 
M352.040222,387.144104 
	C341.141937,382.471924 338.793213,384.021210 339.015564,395.736572 
	C339.028168,396.399719 339.019196,397.064972 339.069580,397.725464 
	C339.460114,402.844574 342.838989,405.925049 347.741821,404.561584 
	C350.604340,403.765472 354.209778,401.706024 355.267639,399.258392 
	C356.940552,395.387726 356.667480,390.735107 352.040222,387.144104 
M340.328094,365.065460 
	C339.891937,368.100067 339.326050,371.123108 339.054230,374.172363 
	C338.751251,377.571106 339.737854,379.910400 343.870331,380.008972 
	C349.448639,380.142090 352.276550,378.585632 352.862579,374.469604 
	C353.804230,367.855743 349.471527,364.264893 340.328094,365.065460 
z"/>
<path fill="#442D22" opacity="1.000000" stroke="none" 
	d="
M108.318909,407.111145 
	C103.614265,407.880981 98.969841,408.337067 94.314262,408.573425 
	C94.177299,408.580353 93.320724,405.865051 93.828239,405.114960 
	C95.930336,402.008087 97.516975,387.701874 94.946350,385.168274 
	C93.150803,383.398590 89.754669,382.369415 87.204613,382.582062 
	C85.689194,382.708466 83.537224,385.748260 83.238327,387.716187 
	C82.620064,391.786774 82.605583,396.082642 83.214676,400.155518 
	C83.575569,402.568756 85.600410,404.733215 86.970261,407.175690 
	C84.327461,409.965759 74.816460,409.999756 71.624832,406.805573 
	C75.773293,402.690674 77.743423,391.555939 75.249504,385.858215 
	C73.915459,382.810364 71.771500,381.170776 68.160233,381.824310 
	C64.614174,382.466003 62.939972,384.353119 63.016228,387.964813 
	C63.093563,391.627777 62.693634,395.333252 63.131165,398.943970 
	C63.394550,401.117523 64.978348,403.103821 65.726891,405.258270 
	C66.062401,406.223907 66.262947,407.886871 65.731316,408.382843 
	C64.061043,409.940918 52.946323,408.830200 50.178791,406.787994 
	C56.378330,403.994537 54.977959,398.534454 54.969292,393.597748 
	C54.960579,388.635223 56.494888,383.114227 50.292820,379.627472 
	C54.779171,378.468781 58.320499,374.009064 63.320358,378.003265 
	C63.976776,378.527618 65.803894,378.046753 66.852203,377.541046 
	C71.541847,375.278656 75.865860,374.683472 80.313965,378.413177 
	C81.321289,379.257812 84.074677,378.758392 85.660522,378.056091 
	C96.790451,373.127167 103.738655,377.469696 103.980980,389.704163 
	C104.020561,391.702484 104.153999,393.716888 103.968513,395.698029 
	C103.548973,400.179291 104.123528,404.183075 108.318909,407.111145 
z"/>
<path fill="#442D22" opacity="1.000000" stroke="none" 
	d="
M225.941772,413.843079 
	C224.495956,421.656921 218.666016,427.477753 211.375336,427.787262 
	C207.010086,427.972565 202.148605,427.905304 198.307068,426.178650 
	C193.173935,423.871521 189.964890,416.985809 196.952393,411.671539 
	C197.715271,411.091370 198.388855,410.393768 199.294952,409.578705 
	C196.604202,406.207184 194.440933,402.882080 199.807281,400.278015 
	C199.512100,399.594666 199.428055,399.056580 199.118698,398.735626 
	C194.748795,394.201111 192.330444,389.234833 195.555084,382.999023 
	C198.213654,377.857941 204.300201,375.073242 211.349838,375.909607 
	C213.479752,376.162292 215.537842,377.079437 217.666519,377.269043 
	C220.397522,377.512207 223.166550,377.328125 226.832016,377.328125 
	C226.256287,378.924988 226.095642,381.347870 225.113770,381.746155 
	C221.205078,383.331543 221.960144,387.031616 220.490280,389.676849 
	C218.467896,393.316406 214.736404,396.104889 211.420670,398.879883 
	C210.046921,400.029602 207.854477,400.201111 206.034363,400.817474 
	C206.001312,401.390167 205.968246,401.962830 205.935196,402.535492 
	C209.311157,403.037781 212.673645,403.674957 216.065933,404.014008 
	C222.907059,404.697754 225.448242,407.038422 225.941772,413.843079 
M209.168747,410.893250 
	C208.176620,410.837006 206.883087,410.353668 206.247360,410.802368 
	C204.108246,412.312134 200.824753,413.990326 200.596817,415.914246 
	C200.369293,417.834595 202.870407,420.880219 204.951889,422.047119 
	C207.040939,423.218140 210.101700,422.952820 212.712585,422.825348 
	C216.492599,422.640747 219.198181,420.409576 219.372284,416.650299 
	C219.556442,412.673645 216.255768,411.614716 212.950958,411.121979 
	C211.967682,410.975372 210.959106,410.998383 209.168747,410.893250 
M212.834946,383.829315 
	C211.368683,380.134583 208.318909,379.381927 205.085098,380.476410 
	C201.149002,381.808472 201.922745,385.530975 202.154785,388.584961 
	C202.452881,392.508179 204.482956,395.350861 208.739838,395.156586 
	C213.152512,394.955170 213.633255,391.343842 213.828461,387.933441 
	C213.891693,386.828735 213.364304,385.690186 212.834946,383.829315 
z"/>
<path fill="#442D22" opacity="1.000000" stroke="none" 
	d="
M165.000290,393.048676 
	C165.006348,402.843872 165.006348,402.843872 169.325073,406.598450 
	C166.684952,409.882202 156.273041,410.111694 152.644287,406.966125 
	C159.282928,399.224304 158.917053,386.564575 151.870102,380.179169 
	C154.907623,376.844299 161.249588,375.713379 165.310440,377.399689 
	C166.401886,377.852936 168.100922,377.346069 169.346039,376.845001 
	C177.579178,373.531708 182.912445,375.983063 185.044373,384.669281 
	C185.901596,388.161865 185.888992,391.907532 185.962875,395.544312 
	C186.105865,402.583160 186.014923,402.585022 190.347870,406.655792 
	C187.479248,409.939911 177.041611,410.065918 173.532700,406.754547 
	C181.094040,401.160767 177.858780,393.395996 177.211258,386.383759 
	C176.869965,382.687500 173.233047,381.772461 169.785141,382.205963 
	C166.444244,382.626007 164.882935,384.688354 165.023743,388.073761 
	C165.085968,389.569733 165.012360,391.071320 165.000290,393.048676 
z"/>
<path fill="#442D22" opacity="1.000000" stroke="none" 
	d="
M113.390167,390.495392 
	C116.385063,378.373596 126.946693,372.650177 137.661896,377.009308 
	C143.790619,379.502594 146.823776,384.302185 146.994843,391.462555 
	C147.169601,398.776367 144.381668,404.545746 137.744690,407.725677 
	C125.601456,413.543823 113.119576,407.051086 113.390167,390.495392 
M122.988998,398.223572 
	C124.824425,402.261414 127.525253,405.807953 132.311768,404.666077 
	C134.686935,404.099487 138.047501,401.252991 138.229889,399.195709 
	C138.652847,394.424652 138.128860,389.268860 136.619659,384.723694 
	C135.439285,381.168854 131.483841,379.433319 127.488014,380.305054 
	C123.544777,381.165344 121.845634,384.307281 121.854744,388.111053 
	C121.862206,391.228333 122.434906,394.344269 122.988998,398.223572 
z"/>
<path fill="#442D22" opacity="1.000000" stroke="none" 
	d="
M250.906067,376.028503 
	C262.982574,379.100281 264.631653,390.471405 262.053040,398.242554 
	C259.090515,407.170624 249.085571,411.822205 239.864136,408.776428 
	C233.285568,406.603516 228.756989,399.405975 229.246811,391.901581 
	C229.776077,383.793091 234.909348,377.647919 242.728119,376.197662 
	C245.254700,375.729004 247.921295,376.015045 250.906067,376.028503 
M249.061707,404.833954 
	C254.508377,403.139862 255.131760,398.744629 254.956512,394.038727 
	C254.760040,388.763641 254.196640,383.288055 248.455902,381.138611 
	C246.223343,380.302734 242.404968,380.516907 240.744034,381.934357 
	C235.671082,386.263733 236.986725,392.235413 238.750534,397.664886 
	C240.157333,401.995392 243.040146,405.214417 249.061707,404.833954 
z"/>
<path fill="#41301F" opacity="1.000000" stroke="none" 
	d="
M100.892639,109.001625 
	C102.113838,100.792221 106.733925,96.173584 113.777496,92.800850 
	C128.824692,85.595665 144.702316,81.461723 161.053467,79.117798 
	C188.557449,75.175133 216.182709,74.926964 243.791321,77.971909 
	C264.231506,80.226250 284.170624,84.454414 302.639648,94.114319 
	C307.702301,96.762245 310.866302,100.341942 312.326233,105.952858 
	C317.238922,124.834106 318.758789,143.963531 317.485626,163.390350 
	C316.116577,184.280701 312.694000,204.767792 304.505188,224.129425 
	C291.510376,254.854355 270.124451,279.067200 243.874832,298.999329 
	C233.450836,306.914551 221.751358,313.144775 210.681107,320.218079 
	C208.146957,321.837250 205.981705,321.689941 203.318069,320.303009 
	C166.504135,301.134277 136.898987,274.254425 116.186569,238.137482 
	C104.561493,217.866455 99.600319,195.446335 97.200127,172.415482 
	C94.992012,151.227554 95.772644,130.184555 100.892639,109.001625 
M204.996185,283.677917 
	C205.072342,284.126801 205.148514,284.575684 205.142914,285.812500 
	C205.563095,289.574615 205.983276,293.336761 206.269028,297.858185 
	C205.688721,302.154938 208.621262,302.523743 211.732346,302.895996 
	C211.732346,297.838318 211.732346,292.954956 211.921875,287.233490 
	C212.946808,283.238922 213.971741,279.244354 215.616043,274.936371 
	C237.645508,257.923706 250.326416,235.574051 253.963730,207.105759 
	C255.748383,189.843597 254.068130,173.040100 247.177383,156.166351 
	C241.323975,141.308365 233.854507,127.467033 223.197678,115.360535 
	C217.444000,108.824165 212.567078,101.516045 207.170242,94.129028 
	C207.099350,93.980057 207.050186,93.814148 206.951172,93.687103 
	C206.860336,93.570587 206.611908,93.411713 206.609406,93.414803 
	C203.026123,97.828529 199.457611,102.254242 195.289062,107.001701 
	C193.182083,109.311546 191.075089,111.621399 188.399307,114.284058 
	C186.254974,117.163086 184.110657,120.042122 181.397064,123.240219 
	C180.526688,124.721428 179.656311,126.202637 178.279877,128.135605 
	C177.105148,130.317520 175.930420,132.499435 174.248444,135.175629 
	C171.854706,140.854797 169.460983,146.533966 166.685471,152.825211 
	C164.872696,160.209061 163.059921,167.592896 161.084763,175.830841 
	C160.682617,184.296844 159.441269,192.822067 160.033539,201.217911 
	C161.912064,227.847824 173.654831,249.887238 193.294891,268.646149 
	C196.567032,271.500946 199.839188,274.355713 203.228058,277.871796 
	C203.834244,279.578583 204.440445,281.285370 204.996185,283.677917 
z"/>
<path fill="#47704C" opacity="1.000000" stroke="none" 
	d="
M293.338593,364.549438 
	C305.434082,366.841888 310.179962,372.598969 309.672882,384.712555 
	C309.504181,388.742828 308.951080,392.977448 307.477173,396.682404 
	C305.112701,402.626068 299.576813,404.576630 293.663177,404.690369 
	C287.383301,404.811157 285.088470,402.220825 285.032684,395.802063 
	C284.961884,387.659332 284.974274,379.515320 285.020172,371.372253 
	C285.059662,364.365570 285.850372,363.711731 293.338593,364.549438 
z"/>
<path fill="#47704C" opacity="1.000000" stroke="none" 
	d="
M352.356995,387.330109 
	C356.667480,390.735107 356.940552,395.387726 355.267639,399.258392 
	C354.209778,401.706024 350.604340,403.765472 347.741821,404.561584 
	C342.838989,405.925049 339.460114,402.844574 339.069580,397.725464 
	C339.019196,397.064972 339.028168,396.399719 339.015564,395.736572 
	C338.793213,384.021210 341.141937,382.471924 352.356995,387.330109 
z"/>
<path fill="#47704C" opacity="1.000000" stroke="none" 
	d="
M340.657288,364.846252 
	C349.471527,364.264893 353.804230,367.855743 352.862579,374.469604 
	C352.276550,378.585632 349.448639,380.142090 343.870331,380.008972 
	C339.737854,379.910400 338.751251,377.571106 339.054230,374.172363 
	C339.326050,371.123108 339.891937,368.100067 340.657288,364.846252 
z"/>
<path fill="#48704C" opacity="1.000000" stroke="none" 
	d="
M209.565430,410.918457 
	C210.959106,410.998383 211.967682,410.975372 212.950958,411.121979 
	C216.255768,411.614716 219.556442,412.673645 219.372284,416.650299 
	C219.198181,420.409576 216.492599,422.640747 212.712585,422.825348 
	C210.101700,422.952820 207.040939,423.218140 204.951889,422.047119 
	C202.870407,420.880219 200.369293,417.834595 200.596817,415.914246 
	C200.824753,413.990326 204.108246,412.312134 206.247360,410.802368 
	C206.883087,410.353668 208.176620,410.837006 209.565430,410.918457 
z"/>
<path fill="#48704C" opacity="1.000000" stroke="none" 
	d="
M212.971008,384.198242 
	C213.364304,385.690186 213.891693,386.828735 213.828461,387.933441 
	C213.633255,391.343842 213.152512,394.955170 208.739838,395.156586 
	C204.482956,395.350861 202.452881,392.508179 202.154785,388.584961 
	C201.922745,385.530975 201.149002,381.808472 205.085098,380.476410 
	C208.318909,379.381927 211.368683,380.134583 212.971008,384.198242 
z"/>
<path fill="#48704C" opacity="1.000000" stroke="none" 
	d="
M122.873024,397.842163 
	C122.434906,394.344269 121.862206,391.228333 121.854744,388.111053 
	C121.845634,384.307281 123.544777,381.165344 127.488014,380.305054 
	C131.483841,379.433319 135.439285,381.168854 136.619659,384.723694 
	C138.128860,389.268860 138.652847,394.424652 138.229889,399.195709 
	C138.047501,401.252991 134.686935,404.099487 132.311768,404.666077 
	C127.525253,405.807953 124.824425,402.261414 122.873024,397.842163 
z"/>
<path fill="#48704C" opacity="1.000000" stroke="none" 
	d="
M248.671265,404.868042 
	C243.040146,405.214417 240.157333,401.995392 238.750534,397.664886 
	C236.986725,392.235413 235.671082,386.263733 240.744034,381.934357 
	C242.404968,380.516907 246.223343,380.302734 248.455902,381.138611 
	C254.196640,383.288055 254.760040,388.763641 254.956512,394.038727 
	C255.131760,398.744629 254.508377,403.139862 248.671265,404.868042 
z"/>
<path fill="#509647" opacity="1.000000" stroke="none" 
	d="
M247.318680,156.907654 
	C254.068130,173.040100 255.748383,189.843597 253.511826,207.612671 
	C244.075562,209.667206 235.138336,211.652054 226.092285,212.627472 
	C218.530701,213.442795 211.648193,214.411469 209.095657,222.559250 
	C209.003113,218.047104 208.940613,214.000275 208.901672,209.492249 
	C208.901077,204.334229 208.876923,199.637405 208.875702,194.476135 
	C208.851196,183.982574 208.803757,173.953491 208.792816,163.533920 
	C208.901260,162.098160 208.973206,161.052887 209.459656,159.984711 
	C212.167953,159.584946 214.450577,159.109589 216.757416,158.848160 
	C226.911102,157.697464 236.909744,154.033920 247.318680,156.907654 
z"/>
<path fill="#4C9143" opacity="1.000000" stroke="none" 
	d="
M209.125732,223.024582 
	C211.648193,214.411469 218.530701,213.442795 226.092285,212.627472 
	C235.138336,211.652054 244.075562,209.667206 253.447784,208.054016 
	C250.326416,235.574051 237.645508,257.923706 215.001770,274.947113 
	C213.291336,273.867065 212.195190,272.776276 211.044708,271.331421 
	C209.676636,268.333008 208.362885,265.688721 207.047943,262.812622 
	C207.046768,262.580841 207.038116,262.117310 207.239548,261.867004 
	C207.927505,250.395279 208.414032,239.173889 208.923706,227.542816 
	C209.006470,225.763611 209.066101,224.394104 209.125732,223.024582 
z"/>
<path fill="#5BA94E" opacity="1.000000" stroke="none" 
	d="
M207.038116,262.117310 
	C207.038116,262.117310 207.046768,262.580841 206.879471,263.151489 
	C205.511887,268.218231 204.311600,272.714355 203.111328,277.210480 
	C199.839188,274.355713 196.567032,271.500946 193.193985,268.028076 
	C192.746384,265.142883 192.714966,262.771545 192.005142,260.624512 
	C183.150711,233.842560 174.240982,207.078537 165.183655,180.364777 
	C164.502213,178.354919 162.588196,176.762970 161.247147,174.976746 
	C163.059921,167.592896 164.872696,160.209061 167.155731,152.861237 
	C168.911530,155.581100 170.495804,158.164551 171.436676,160.964233 
	C181.572464,191.124786 191.550110,221.338623 201.741653,251.480164 
	C202.998672,255.197800 205.248413,258.579773 207.038116,262.117310 
z"/>
<path fill="#65AE55" opacity="1.000000" stroke="none" 
	d="
M207.239548,261.867004 
	C205.248413,258.579773 202.998672,255.197800 201.741653,251.480164 
	C191.550110,221.338623 181.572464,191.124786 171.436676,160.964233 
	C170.495804,158.164551 168.911530,155.581100 167.346634,152.555191 
	C169.460983,146.533966 171.854706,140.854797 174.661545,135.285156 
	C175.980713,137.891403 176.942596,140.369507 177.784180,142.887772 
	C185.995483,167.457870 194.075790,192.072800 202.493607,216.571793 
	C203.884949,220.621109 206.728256,224.171524 208.900558,227.952499 
	C208.414032,239.173889 207.927505,250.395279 207.239548,261.867004 
z"/>
<path fill="#559B4B" opacity="1.000000" stroke="none" 
	d="
M247.248032,156.537003 
	C236.909744,154.033920 226.911102,157.697464 216.757416,158.848160 
	C214.450577,159.109589 212.167953,159.584946 209.418259,159.516968 
	C208.683121,152.374435 208.403931,145.676773 208.141586,138.512085 
	C207.870499,123.548759 207.582550,109.052422 207.294601,94.556091 
	C212.567078,101.516045 217.444000,108.824165 223.197678,115.360535 
	C233.854507,127.467033 241.323975,141.308365 247.248032,156.537003 
z"/>
<path fill="#52A549" opacity="1.000000" stroke="none" 
	d="
M161.165955,175.403793 
	C162.588196,176.762970 164.502213,178.354919 165.183655,180.364777 
	C174.240982,207.078537 183.150711,233.842560 192.005142,260.624512 
	C192.714966,262.771545 192.746384,265.142883 193.023590,267.742706 
	C173.654831,249.887238 161.912064,227.847824 160.033539,201.217911 
	C159.441269,192.822067 160.682617,184.296844 161.165955,175.403793 
z"/>
<path fill="#77B664" opacity="1.000000" stroke="none" 
	d="
M208.756302,163.924393 
	C208.803757,173.953491 208.851196,183.982574 208.595993,194.311981 
	C206.601425,191.452942 204.459351,188.450943 203.291183,185.108566 
	C196.061142,164.421997 189.050095,143.658859 181.966339,122.921158 
	C184.110657,120.042122 186.254974,117.163086 188.841034,114.434822 
	C194.181000,128.866852 198.973495,143.186142 204.079453,157.392746 
	C204.950775,159.817093 207.163361,161.759399 208.756302,163.924393 
z"/>
<path fill="#6DB15A" opacity="1.000000" stroke="none" 
	d="
M208.923706,227.542816 
	C206.728256,224.171524 203.884949,220.621109 202.493607,216.571793 
	C194.075790,192.072800 185.995483,167.457870 177.784180,142.887772 
	C176.942596,140.369507 175.980713,137.891403 174.915176,135.038025 
	C175.930420,132.499435 177.105148,130.317520 178.688171,128.267456 
	C187.564728,153.266632 195.981445,178.151794 204.579803,202.974014 
	C205.452850,205.494385 207.419159,207.636047 208.878128,209.953461 
	C208.940613,214.000275 209.003113,218.047104 209.095673,222.559250 
	C209.066101,224.394104 209.006470,225.763611 208.923706,227.542816 
z"/>
<path fill="#71B35E" opacity="1.000000" stroke="none" 
	d="
M208.901672,209.492249 
	C207.419159,207.636047 205.452850,205.494385 204.579803,202.974014 
	C195.981445,178.151794 187.564728,153.266632 178.941208,128.041580 
	C179.656311,126.202637 180.526688,124.721428 181.681702,123.080688 
	C189.050095,143.658859 196.061142,164.421997 203.291183,185.108566 
	C204.459351,188.450943 206.601425,191.452942 208.573044,194.776428 
	C208.876923,199.637405 208.901077,204.334229 208.901672,209.492249 
z"/>
<path fill="#7FBB6D" opacity="1.000000" stroke="none" 
	d="
M208.792816,163.533920 
	C207.163361,161.759399 204.950775,159.817093 204.079453,157.392746 
	C198.973495,143.186142 194.181000,128.866852 189.125427,114.258415 
	C191.075089,111.621399 193.182083,109.311546 195.638840,107.258377 
	C198.870209,116.651382 201.657776,125.819496 204.723251,134.893723 
	C205.252304,136.459808 206.960953,137.627426 208.124725,138.979095 
	C208.403931,145.676773 208.683121,152.374435 209.003723,159.539856 
	C208.973206,161.052887 208.901260,162.098160 208.792816,163.533920 
z"/>
<path fill="#86BE75" opacity="1.000000" stroke="none" 
	d="
M208.141586,138.512085 
	C206.960953,137.627426 205.252304,136.459808 204.723251,134.893723 
	C201.657776,125.819496 198.870209,116.651382 195.938812,107.097473 
	C199.457611,102.254242 203.026123,97.828529 206.609406,93.414803 
	C206.611908,93.411713 206.860336,93.570587 206.951172,93.687103 
	C207.050186,93.814148 207.099350,93.980057 207.232422,94.342560 
	C207.582550,109.052422 207.870499,123.548759 208.141586,138.512085 
z"/>
<path fill="#BEBBA1" opacity="1.000000" stroke="none" 
	d="
M211.099060,271.685486 
	C212.195190,272.776276 213.291336,273.867065 214.692078,275.103821 
	C213.971741,279.244354 212.946808,283.238922 211.602097,287.884216 
	C209.656036,291.389587 208.029739,294.244232 206.403458,297.098877 
	C205.983276,293.336761 205.563095,289.574615 205.486572,285.280396 
	C207.521881,281.139496 209.213562,277.530670 210.934479,273.548676 
	C211.008835,272.678864 211.053940,272.182159 211.099060,271.685486 
z"/>
<path fill="#ABAA89" opacity="1.000000" stroke="none" 
	d="
M211.044708,271.331421 
	C211.053940,272.182159 211.008835,272.678864 210.683105,273.773376 
	C208.617218,277.244904 206.831940,280.118530 205.046661,282.992157 
	C204.440445,281.285370 203.834244,279.578583 203.169693,277.541138 
	C204.311600,272.714355 205.511887,268.218231 206.880646,263.383240 
	C208.362885,265.688721 209.676636,268.333008 211.044708,271.331421 
z"/>
<path fill="#D3D0BC" opacity="1.000000" stroke="none" 
	d="
M206.336243,297.478516 
	C208.029739,294.244232 209.656036,291.389587 211.507324,288.303253 
	C211.732346,292.954956 211.732346,297.838318 211.732346,302.895996 
	C208.621262,302.523743 205.688721,302.154938 206.336243,297.478516 
z"/>
<path fill="#B7B497" opacity="1.000000" stroke="none" 
	d="
M205.021423,283.335022 
	C206.831940,280.118530 208.617218,277.244904 210.653870,274.146545 
	C209.213562,277.530670 207.521881,281.139496 205.527451,284.886444 
	C205.148514,284.575684 205.072342,284.126801 205.021423,283.335022 
z"/>
</svg>