<svg version="1.1" id="Layer_1" xmlns="http://www.w3.org/2000/svg" xmlns:xlink="http://www.w3.org/1999/xlink" x="0px" y="0px"
	 width="100%" viewBox="0 0 1400 700" enable-background="new 0 0 1400 700" xml:space="preserve">
<path fill="#222222" opacity="1.000000" stroke="none" 
	d="
M939.000000,701.000000 
	C626.037170,701.000000 313.574280,701.000000 1.055712,701.000000 
	C1.055712,467.731537 1.055712,234.463089 1.055712,1.097310 
	C467.546326,1.097310 934.092712,1.097310 1400.819580,1.097310 
	C1400.819580,234.333221 1400.819580,467.666595 1400.819580,701.000000 
	C1247.129517,701.000000 1093.314697,701.000000 939.000000,701.000000 
M575.660706,294.574738 
	C575.660706,294.574738 575.534241,294.381927 575.060059,294.643768 
	C574.828491,294.920654 574.596863,295.197540 574.257751,295.433807 
	C574.257751,295.433807 574.199951,295.533142 573.676025,295.868835 
	C568.387207,302.547150 563.098450,309.225464 557.229736,316.292114 
	C554.833008,323.198730 552.436340,330.105347 549.724426,337.711975 
	C546.262878,354.528778 548.140686,370.662476 555.947021,386.752533 
	C556.963257,388.534241 557.979553,390.315948 559.193787,392.658905 
	C559.788635,393.436493 560.383423,394.214111 560.974854,395.017639 
	C560.974854,395.017639 560.999512,395.026489 561.115723,395.596985 
	C561.584106,396.214111 562.052490,396.831268 562.562744,397.335510 
	C562.562744,397.335510 562.445984,397.306244 562.686279,397.861603 
	C563.088745,398.291412 563.491272,398.721222 563.933960,399.077271 
	C563.933960,399.077271 563.854126,399.103394 564.080139,399.748474 
	C574.945435,413.795685 588.961426,422.893280 606.304504,427.489075 
	C607.247314,422.471252 608.039062,418.257599 609.170898,413.392578 
	C609.769958,411.261108 610.369019,409.129639 611.378845,406.426514 
	C612.977600,402.633453 614.576416,398.840393 616.690857,394.627747 
	C617.987610,392.307556 619.284363,389.987366 620.677307,387.600830 
	C620.677307,387.600830 620.628174,387.494781 621.052734,387.050110 
	C621.462646,386.350494 621.872498,385.650909 622.808777,384.590637 
	C624.645569,382.089935 626.482422,379.589203 628.880310,376.748840 
	C631.140503,374.219635 633.400696,371.690430 636.272278,368.999756 
	C639.174133,366.574402 642.075928,364.149048 645.582214,361.460663 
	C660.442444,350.647186 677.255676,345.188599 696.143066,343.385559 
	C697.429688,343.295685 698.716248,343.205841 700.920593,343.298523 
	C707.987793,342.306152 715.055054,341.313782 722.901001,340.214325 
	C730.994690,336.163940 739.088379,332.113525 747.803162,327.836945 
	C753.598816,321.592010 759.394409,315.347076 765.713623,308.691071 
	C783.802368,280.200195 781.997803,242.524307 761.150208,218.438629 
	C756.422913,213.985245 751.695618,209.531860 746.541504,204.554031 
	C742.396362,202.356873 738.251221,200.159714 733.802429,197.322678 
	C729.871033,195.874588 725.939636,194.426498 721.370178,192.584335 
	C718.252258,192.032730 715.134277,191.481140 711.506226,190.650589 
	C710.347717,190.820755 709.189148,190.990921 707.159912,191.020752 
	C705.107056,191.060715 703.054199,191.100677 700.121277,191.004303 
	C694.409058,191.454422 688.696899,191.904556 682.237183,192.378540 
	C675.095459,195.550034 667.953674,198.721527 660.119385,201.942612 
	C640.511902,215.094360 628.949829,233.221466 625.425720,256.864685 
	C638.463623,256.864685 650.730835,256.864685 663.920837,257.039215 
	C670.276794,256.981445 676.632751,256.923645 683.861328,257.038849 
	C686.505859,257.080719 689.150330,257.122559 691.854370,257.930603 
	C691.271362,263.995728 688.523499,268.917450 683.249268,273.123291 
	C679.288696,274.128113 675.375000,275.655884 671.356689,276.015839 
	C665.256897,276.562195 659.084473,276.297546 652.023376,276.231598 
	C642.579285,276.223419 633.082581,275.595459 623.706909,276.392670 
	C615.402344,277.098816 607.232605,279.389923 598.256714,281.015991 
	C591.812195,284.605927 585.367676,288.195862 578.347412,291.976379 
	C577.748596,292.517090 577.149780,293.057770 576.723450,293.672974 
	C576.723450,293.672974 576.788696,293.496674 576.207031,293.720520 
	C575.958862,294.044495 575.710632,294.368469 575.660706,294.574738 
M753.372742,347.292847 
	C742.813843,354.099701 731.328186,358.555573 719.018250,361.001312 
	C717.307800,361.341187 715.721313,362.304657 713.301819,362.900757 
	C712.528931,362.977051 711.755981,363.053345 710.100220,363.013245 
	C706.386169,362.973236 702.672058,362.933258 698.079041,362.707001 
	C694.032227,363.429230 689.985474,364.151459 685.090454,364.964905 
	C676.414673,365.526520 668.989746,369.345093 661.911316,373.916901 
	C661.911316,373.916901 661.913635,373.845734 661.249329,374.018280 
	C659.404602,375.359833 657.559875,376.701355 655.099426,378.222717 
	C649.683105,383.978241 644.266785,389.733765 638.284302,395.914734 
	C616.664062,428.180023 621.601318,470.450378 650.191650,496.629517 
	C658.424194,501.495361 666.656677,506.361176 675.346680,511.808472 
	C680.554260,512.889587 685.761780,513.970703 691.672119,515.524597 
	C725.741760,521.211426 762.325012,498.636658 773.925354,464.618713 
	C775.607117,459.686981 776.599060,454.520020 778.048035,448.930176 
	C755.352844,448.930176 733.606995,448.930176 711.520813,448.514709 
	C711.338623,448.006561 711.156433,447.498413 711.236511,446.437500 
	C712.226257,438.503662 718.310669,431.693420 728.550598,429.761292 
	C738.004517,429.752747 747.459412,429.827057 756.912109,429.713501 
	C767.351196,429.588104 777.897339,430.127899 788.189636,428.787415 
	C795.637207,427.817413 802.746704,424.252258 810.751343,421.969513 
	C812.124573,421.454285 813.610779,421.130341 814.854492,420.395782 
	C843.584717,403.427795 857.429749,378.164185 854.200134,345.012054 
	C851.149841,313.701630 833.504150,292.534943 804.417419,280.851868 
	C802.033630,279.894379 799.512878,279.277618 798.382568,278.921051 
	C793.853333,290.937531 789.599487,302.223419 785.378113,313.524902 
	C785.378113,313.524902 785.351807,313.526337 784.988098,313.968872 
	C784.443604,314.971893 783.899109,315.974884 782.870117,317.488495 
	C780.089722,321.339020 777.309265,325.189545 774.018799,329.372528 
	C772.012207,331.591370 770.005676,333.810211 767.386841,336.291504 
	C762.939148,339.898438 758.491394,343.505341 753.372742,347.292847 
z"/>
<path fill="#FEDC01" opacity="1.000000" stroke="none" 
	d="
M785.345581,313.509277 
	C789.599487,302.223419 793.853333,290.937531 798.382568,278.921051 
	C799.512878,279.277618 802.033630,279.894379 804.417419,280.851868 
	C833.504150,292.534943 851.149841,313.701630 854.200134,345.012054 
	C857.429749,378.164185 843.584717,403.427795 814.854492,420.395782 
	C813.610779,421.130341 812.124573,421.454285 810.374695,421.525513 
	C809.120667,419.446472 808.664612,417.166779 807.301025,416.275543 
	C792.609741,406.673187 778.784058,396.041870 767.848938,382.193512 
	C763.076355,376.149536 759.237610,369.368164 755.446106,362.912903 
	C759.408386,362.891846 762.909119,363.043091 766.388306,362.834534 
	C774.631592,362.340454 782.864685,361.675568 791.512756,361.073608 
	C797.953552,359.049347 803.983521,357.031219 810.377441,354.982361 
	C815.158691,352.299927 819.575867,349.648224 824.298828,346.851257 
	C828.740967,343.054016 832.877319,339.401978 837.631287,335.204651 
	C835.063354,333.741638 833.721069,332.819427 832.258179,332.168304 
	C820.439331,326.907593 808.653381,321.565552 796.729370,316.553009 
	C793.142212,315.045044 789.151428,314.497040 785.345581,313.509277 
z"/>
<path fill="#FEDC01" opacity="1.000000" stroke="none" 
	d="
M711.861084,448.930176 
	C733.606995,448.930176 755.352844,448.930176 778.048035,448.930176 
	C776.599060,454.520020 775.607117,459.686981 773.925354,464.618713 
	C762.325012,498.636658 725.741760,521.211426 691.621277,515.077454 
	C696.543701,514.009827 697.975403,510.677979 697.979675,506.255615 
	C697.985840,499.958588 698.228577,493.650818 697.945557,487.366760 
	C697.352844,474.205933 699.839355,460.884918 696.392456,447.912415 
	C701.834229,448.265320 706.847656,448.597748 711.861084,448.930176 
M718.304871,476.206512 
	C714.929077,472.578217 710.649658,471.664124 706.641785,474.142609 
	C704.199158,475.653168 701.949402,478.667542 701.189392,481.438721 
	C699.926147,486.044922 703.118164,489.065887 707.043152,491.001587 
	C711.092102,492.998444 714.908447,492.201202 717.931458,489.014160 
	C721.454041,485.300507 721.643555,481.082031 718.304871,476.206512 
z"/>
<path fill="#FCD005" opacity="1.000000" stroke="none" 
	d="
M754.974792,362.921692 
	C759.237610,369.368164 763.076355,376.149536 767.848938,382.193512 
	C778.784058,396.041870 792.609741,406.673187 807.301025,416.275543 
	C808.664612,417.166779 809.120667,419.446472 810.002502,421.462952 
	C802.746704,424.252258 795.637207,427.817413 788.189636,428.787415 
	C777.897339,430.127899 767.351196,429.588104 756.912109,429.713501 
	C747.459412,429.827057 738.004517,429.752747 728.359802,429.450623 
	C729.111023,428.757935 730.053040,428.375916 731.464111,427.997711 
	C745.024231,428.001556 758.115417,428.001556 771.206543,428.001556 
	C771.314758,427.421539 771.422974,426.841522 771.531128,426.261505 
	C770.357971,425.176941 769.148071,424.129150 768.017456,423.001862 
	C759.347473,414.357056 749.902344,406.336517 742.243774,396.871277 
	C733.640625,386.238739 726.655273,374.297150 719.438538,362.927368 
	C731.598938,362.926971 743.286865,362.924316 754.974792,362.921692 
z"/>
<path fill="#F4AC12" opacity="1.000000" stroke="none" 
	d="
M711.690918,448.722443 
	C706.847656,448.597748 701.834229,448.265320 696.065063,447.767029 
	C689.209473,445.407654 683.109619,443.214172 676.704895,440.860382 
	C668.933350,435.131165 661.466675,429.562225 653.850830,423.688446 
	C652.646973,421.925018 651.609131,420.453888 650.534729,419.009979 
	C645.223572,411.872284 640.002014,404.692474 638.850464,395.489288 
	C644.266785,389.733765 649.683105,383.978241 655.790771,378.097290 
	C658.292664,376.596466 660.103149,375.221100 661.913635,373.845734 
	C661.913635,373.845734 661.911316,373.916901 662.254028,373.955139 
	C663.905945,375.303192 665.697205,376.382599 666.450378,377.958221 
	C674.570679,394.944550 684.367981,410.849030 695.968567,425.699371 
	C701.307068,432.533386 705.992676,439.877472 710.974304,446.990265 
	C711.156433,447.498413 711.338623,448.006561 711.690918,448.722443 
z"/>
<path fill="#F9C309" opacity="1.000000" stroke="none" 
	d="
M718.966064,362.925079 
	C726.655273,374.297150 733.640625,386.238739 742.243774,396.871277 
	C749.902344,406.336517 759.347473,414.357056 768.017456,423.001862 
	C769.148071,424.129150 770.357971,425.176941 771.531128,426.261505 
	C771.422974,426.841522 771.314758,427.421539 771.206543,428.001556 
	C758.115417,428.001556 745.024231,428.001556 731.437866,427.639465 
	C730.023987,425.748505 729.322998,424.024261 728.153259,422.720581 
	C714.197632,407.166504 702.592712,389.997162 693.323853,371.309723 
	C691.589539,367.813141 690.148926,365.040833 685.938660,364.873718 
	C689.985474,364.151459 694.032227,363.429230 698.859436,363.025085 
	C703.420898,363.272003 707.202026,363.200836 710.983093,363.129639 
	C711.755981,363.053345 712.528931,362.977051 714.057983,362.991974 
	C715.562378,363.055603 716.310608,363.028015 717.313965,362.973267 
	C717.738647,362.923218 717.908142,362.900391 718.300110,362.881836 
	C718.522644,362.886139 718.966064,362.925079 718.966064,362.925079 
z"/>
<path fill="#F6B70E" opacity="1.000000" stroke="none" 
	d="
M685.514526,364.919312 
	C690.148926,365.040833 691.589539,367.813141 693.323853,371.309723 
	C702.592712,389.997162 714.197632,407.166504 728.153259,422.720581 
	C729.322998,424.024261 730.023987,425.748505 730.968933,427.635620 
	C730.053040,428.375916 729.111023,428.757935 727.898071,429.421082 
	C718.310669,431.693420 712.226257,438.503662 711.105408,446.713867 
	C705.992676,439.877472 701.307068,432.533386 695.968567,425.699371 
	C684.367981,410.849030 674.570679,394.944550 666.450378,377.958221 
	C665.697205,376.382599 663.905945,375.303192 662.220642,373.942810 
	C668.989746,369.345093 676.414673,365.526520 685.514526,364.919312 
z"/>
<path fill="#F6B70E" opacity="1.000000" stroke="none" 
	d="
M638.567383,395.702026 
	C640.002014,404.692474 645.223572,411.872284 650.534729,419.009979 
	C651.609131,420.453888 652.646973,421.925018 653.886108,424.108582 
	C654.379517,427.628357 654.944519,430.422119 654.956055,433.218201 
	C655.034912,452.318787 655.004272,471.419861 654.986389,490.520782 
	C654.984680,492.307312 654.826843,494.093719 654.724121,496.243988 
	C652.859741,496.141357 651.416077,496.061920 649.972473,495.982483 
	C621.601318,470.450378 616.664062,428.180023 638.567383,395.702026 
z"/>
<path fill="#0065DC" opacity="1.000000" stroke="none" 
	d="
M765.190063,309.102173 
	C759.394409,315.347076 753.598816,321.592010 747.109863,327.961792 
	C742.724731,329.411804 740.786804,327.885498 739.125183,324.470398 
	C729.751160,305.204132 718.520203,287.107361 704.801392,270.575958 
	C701.488098,266.583466 698.841980,262.037323 696.328674,257.757080 
	C698.498108,257.754272 700.227905,257.740143 702.366943,257.799774 
	C707.858765,258.955475 712.941467,260.037415 718.309570,261.301636 
	C722.716919,263.376740 726.838806,265.269531 731.200317,267.386749 
	C735.960815,271.074921 740.481628,274.538696 745.225891,278.245728 
	C750.297485,284.663025 755.145569,290.837006 760.070435,297.368347 
	C761.828064,301.517853 763.509033,305.309998 765.190063,309.102173 
z"/>
<path fill="#0073E3" opacity="1.000000" stroke="none" 
	d="
M695.889099,257.745758 
	C698.841980,262.037323 701.488098,266.583466 704.801392,270.575958 
	C718.520203,287.107361 729.751160,305.204132 739.125183,324.470398 
	C740.786804,327.885498 742.724731,329.411804 746.799316,328.074890 
	C739.088379,332.113525 730.994690,336.163940 722.428345,339.893616 
	C712.655945,318.583862 700.813904,299.189636 685.464844,282.058319 
	C682.820312,279.106781 681.434387,276.443085 683.958862,272.879639 
	C688.523499,268.917450 691.271362,263.995728 692.172546,257.555298 
	C693.623535,257.368591 694.756287,257.557190 695.889099,257.745758 
z"/>
<path fill="#0097F6" opacity="1.000000" stroke="none" 
	d="
M599.003296,280.981293 
	C607.232605,279.389923 615.402344,277.098816 623.706909,276.392670 
	C633.082581,275.595459 642.579285,276.223419 652.487915,276.575623 
	C652.975342,277.280304 652.998169,277.641022 652.550232,277.998718 
	C643.243408,277.995758 634.407349,277.995758 625.571289,277.995758 
	C625.432068,278.533051 625.292908,279.070343 625.153687,279.607635 
	C625.882629,280.583740 626.498596,281.674896 627.357788,282.518280 
	C636.804260,291.790924 647.003052,300.414948 655.562805,310.440155 
	C664.214294,320.572723 671.252258,332.082977 678.528992,343.009338 
	C670.374573,343.022125 662.688171,343.015259 654.922241,342.671570 
	C648.067688,333.562469 642.075684,324.011566 634.320984,316.213531 
	C624.434143,306.271362 613.154907,297.707520 602.400085,288.639496 
	C599.939819,286.565063 597.124573,284.878357 599.003296,280.981293 
z"/>
<path fill="#00A2FC" opacity="1.000000" stroke="none" 
	d="
M598.630005,280.998657 
	C597.124573,284.878357 599.939819,286.565063 602.400085,288.639496 
	C613.154907,297.707520 624.434143,306.271362 634.320984,316.213531 
	C642.075684,324.011566 648.067688,333.562469 654.453979,342.696289 
	C645.712341,343.054779 637.359375,343.051697 628.900269,342.730957 
	C625.804871,339.329742 622.590515,336.431610 619.867981,333.128235 
	C611.252075,322.674469 600.949524,314.224609 589.732666,306.747894 
	C584.422607,303.208405 579.369507,299.283447 574.199951,295.533142 
	C574.199951,295.533142 574.257751,295.433807 574.571899,295.345612 
	C575.102051,294.965576 575.318176,294.673737 575.534241,294.381927 
	C575.534241,294.381927 575.660706,294.574738 575.822632,294.478516 
	C576.252625,294.087128 576.520691,293.791901 576.788696,293.496674 
	C576.788696,293.496674 576.723450,293.672974 576.974182,293.623535 
	C577.791016,292.977966 578.357056,292.381897 578.923157,291.785797 
	C585.367676,288.195862 591.812195,284.605927 598.630005,280.998657 
z"/>
<path fill="#007CE8" opacity="1.000000" stroke="none" 
	d="
M653.020996,278.001709 
	C652.998169,277.641022 652.975342,277.280304 652.947693,276.648529 
	C659.084473,276.297546 665.256897,276.562195 671.356689,276.015839 
	C675.375000,275.655884 679.288696,274.128113 683.604065,273.001465 
	C681.434387,276.443085 682.820312,279.106781 685.464844,282.058319 
	C700.813904,299.189636 712.655945,318.583862 722.039001,339.947174 
	C715.055054,341.313782 707.987793,342.306152 700.441528,342.834106 
	C694.483521,332.921448 689.826538,322.858612 683.330444,314.170959 
	C673.925171,301.592712 663.189270,290.009460 653.020996,278.001709 
z"/>
<path fill="#FAC708" opacity="1.000000" stroke="none" 
	d="
M650.082031,496.306000 
	C651.416077,496.061920 652.859741,496.141357 654.724121,496.243988 
	C654.826843,494.093719 654.984680,492.307312 654.986389,490.520782 
	C655.004272,471.419861 655.034912,452.318787 654.956055,433.218201 
	C654.944519,430.422119 654.379517,427.628357 654.035278,424.413391 
	C661.466675,429.562225 668.933350,435.131165 676.737549,441.277588 
	C677.381836,444.309784 677.944519,446.763397 677.954651,449.219330 
	C678.030029,467.429901 678.112732,485.642578 677.857727,503.849915 
	C677.823059,506.322327 675.924683,508.768616 674.889221,511.226990 
	C666.656677,506.361176 658.424194,501.495361 650.082031,496.306000 
z"/>
<path fill="#008BF0" opacity="1.000000" stroke="none" 
	d="
M652.550232,277.998718 
	C663.189270,290.009460 673.925171,301.592712 683.330444,314.170959 
	C689.826538,322.858612 694.483521,332.921448 699.982666,342.742828 
	C698.716248,343.205841 697.429688,343.295685 695.349854,343.237885 
	C694.000916,343.015289 693.445190,342.940338 692.638916,342.697388 
	C691.262085,342.683014 690.135742,342.836670 688.555664,343.024170 
	C685.066895,343.035278 682.031921,343.012482 678.997009,342.989716 
	C671.252258,332.082977 664.214294,320.572723 655.562805,310.440155 
	C647.003052,300.414948 636.804260,291.790924 627.357788,282.518280 
	C626.498596,281.674896 625.882629,280.583740 625.153687,279.607635 
	C625.292908,279.070343 625.432068,278.533051 625.571289,277.995758 
	C634.407349,277.995758 643.243408,277.995758 652.550232,277.998718 
z"/>
<path fill="#00ACFB" opacity="1.000000" stroke="none" 
	d="
M573.937988,295.700989 
	C579.369507,299.283447 584.422607,303.208405 589.732666,306.747894 
	C600.949524,314.224609 611.252075,322.674469 619.867981,333.128235 
	C622.590515,336.431610 625.804871,339.329742 628.443604,342.760803 
	C623.079285,343.786072 618.065613,344.463867 612.622131,345.092041 
	C607.151672,346.084320 602.111023,347.126282 597.035583,347.797058 
	C596.104248,345.894379 595.556702,343.911255 594.254333,342.904816 
	C585.902039,336.450195 577.397644,330.191650 568.914429,323.907562 
	C565.248291,321.191803 561.513367,318.568878 557.809692,315.903809 
	C563.098450,309.225464 568.387207,302.547150 573.937988,295.700989 
z"/>
<path fill="#00C9EC" opacity="1.000000" stroke="none" 
	d="
M662.997986,256.864685 
	C650.730835,256.864685 638.463623,256.864685 625.425720,256.864685 
	C628.949829,233.221466 640.511902,215.094360 660.707764,202.265640 
	C661.531189,204.550842 661.960876,206.512131 661.969788,208.475327 
	C662.030212,221.807800 661.946289,235.141098 662.047546,248.473083 
	C662.068787,251.272522 662.666138,254.067596 662.997986,256.864685 
z"/>
<path fill="#FCD005" opacity="1.000000" stroke="none" 
	d="
M675.117920,511.517731 
	C675.924683,508.768616 677.823059,506.322327 677.857727,503.849915 
	C678.112732,485.642578 678.030029,467.429901 677.954651,449.219330 
	C677.944519,446.763397 677.381836,444.309784 677.042358,441.437897 
	C683.109619,443.214172 689.209473,445.407654 695.636719,447.746521 
	C699.839355,460.884918 697.352844,474.205933 697.945557,487.366760 
	C698.228577,493.650818 697.985840,499.958588 697.979675,506.255615 
	C697.975403,510.677979 696.543701,514.009827 691.269897,514.841064 
	C685.761780,513.970703 680.554260,512.889587 675.117920,511.517731 
z"/>
<path fill="#0073E3" opacity="1.000000" stroke="none" 
	d="
M765.451782,308.896606 
	C763.509033,305.309998 761.828064,301.517853 760.275269,297.044189 
	C760.538696,295.394287 760.784546,294.426910 760.793213,293.457397 
	C761.016113,268.631927 761.214233,243.806244 761.416748,218.980591 
	C781.997803,242.524307 783.802368,280.200195 765.451782,308.896606 
z"/>
<path fill="#00BBF3" opacity="1.000000" stroke="none" 
	d="
M663.459412,256.951965 
	C662.666138,254.067596 662.068787,251.272522 662.047546,248.473083 
	C661.946289,235.141098 662.030212,221.807800 661.969788,208.475327 
	C661.960876,206.512131 661.531189,204.550842 661.054077,202.240845 
	C667.953674,198.721527 675.095459,195.550034 682.459839,192.692749 
	C682.247742,200.422043 681.734558,207.834854 681.520630,215.256287 
	C681.502686,215.877838 683.497498,216.557404 684.387817,217.541565 
	C681.555908,221.921036 681.997009,225.878555 684.164062,229.897583 
	C682.955200,230.771454 681.450073,231.518738 681.446716,232.272736 
	C681.410034,240.497696 679.162598,248.887711 682.988708,256.865845 
	C676.632751,256.923645 670.276794,256.981445 663.459412,256.951965 
z"/>
<path fill="#007CE8" opacity="1.000000" stroke="none" 
	d="
M761.283447,218.709610 
	C761.214233,243.806244 761.016113,268.631927 760.793213,293.457397 
	C760.784546,294.426910 760.538696,295.394287 760.198547,296.686829 
	C755.145569,290.837006 750.297485,284.663025 745.225220,277.776794 
	C745.000244,256.104767 744.920349,235.144348 745.086182,214.185883 
	C745.110229,211.145294 746.311707,208.114059 746.968323,205.078491 
	C751.695618,209.531860 756.422913,213.985245 761.283447,218.709610 
z"/>
<path fill="#00A2FC" opacity="1.000000" stroke="none" 
	d="
M718.024170,261.119354 
	C712.941467,260.037415 707.858765,258.955475 702.335205,257.436218 
	C701.262329,253.181335 700.299255,249.382935 700.077026,245.541672 
	C699.755676,239.988968 699.971191,234.405167 700.063843,228.506607 
	C700.115112,224.829575 700.060120,221.480591 700.006226,217.654694 
	C700.338684,208.498749 700.670044,199.819702 701.001343,191.140656 
	C703.054199,191.100677 705.107056,191.060715 707.864502,191.252701 
	C709.718140,191.299622 710.867249,191.114578 712.016357,190.929550 
	C715.134277,191.481140 718.252258,192.032730 721.398560,192.989578 
	C717.046448,194.684341 716.960022,198.280670 717.015320,201.834717 
	C717.322632,221.596710 717.682373,241.357895 718.024170,261.119354 
z"/>
<path fill="#00BBF3" opacity="1.000000" stroke="none" 
	d="
M557.519714,316.097961 
	C561.513367,318.568878 565.248291,321.191803 568.914429,323.907562 
	C577.397644,330.191650 585.902039,336.450195 594.254333,342.904816 
	C595.556702,343.911255 596.104248,345.894379 596.789795,348.028076 
	C594.364502,349.735199 592.150269,350.840118 589.603638,352.041443 
	C586.049561,354.407532 582.827759,356.677216 579.316895,359.006775 
	C578.104126,359.398682 577.180542,359.730774 575.846802,360.038544 
	C573.090454,358.974121 570.585510,358.187256 568.433044,356.837982 
	C564.670227,354.479248 561.244568,351.576813 557.454224,349.269226 
	C553.421448,346.814087 548.746887,345.055359 550.779541,338.790924 
	C550.930176,338.326874 550.304504,337.610870 550.039673,337.011993 
	C552.436340,330.105347 554.833008,323.198730 557.519714,316.097961 
z"/>
<path fill="#008BF0" opacity="1.000000" stroke="none" 
	d="
M746.754883,204.816254 
	C746.311707,208.114059 745.110229,211.145294 745.086182,214.185883 
	C744.920349,235.144348 745.000244,256.104767 745.001831,277.533508 
	C740.481628,274.538696 735.960815,271.074921 731.210449,266.900696 
	C730.986328,245.337509 730.977722,224.484756 731.016418,203.632111 
	C731.020813,201.254105 730.365967,198.369736 734.106079,197.962555 
	C738.251221,200.159714 742.396362,202.356873 746.754883,204.816254 
z"/>
<path fill="#0097F6" opacity="1.000000" stroke="none" 
	d="
M733.954224,197.642609 
	C730.365967,198.369736 731.020813,201.254105 731.016418,203.632111 
	C730.977722,224.484756 730.986328,245.337509 730.970825,266.676270 
	C726.838806,265.269531 722.716919,263.376740 718.309570,261.301636 
	C717.682373,241.357895 717.322632,221.596710 717.015320,201.834717 
	C716.960022,198.280670 717.046448,194.684341 721.717651,193.186615 
	C725.939636,194.426498 729.871033,195.874588 733.954224,197.642609 
z"/>
<path fill="#FAC708" opacity="1.000000" stroke="none" 
	d="
M785.361816,313.517090 
	C789.151428,314.497040 793.142212,315.045044 796.729370,316.553009 
	C808.653381,321.565552 820.439331,326.907593 832.258179,332.168304 
	C833.721069,332.819427 835.063354,333.741638 837.631287,335.204651 
	C832.877319,339.401978 828.740967,343.054016 824.023987,346.642548 
	C810.526428,341.001373 797.536926,335.582581 784.739624,329.742737 
	C781.202698,328.128723 778.094604,327.065033 774.528809,329.040039 
	C777.309265,325.189545 780.089722,321.339020 783.418213,317.116699 
	C784.428101,315.672028 784.889954,314.599182 785.351807,313.526367 
	C785.351807,313.526337 785.378113,313.524902 785.361816,313.517090 
z"/>
<path fill="#0054D2" opacity="1.000000" stroke="none" 
	d="
M613.051880,345.141663 
	C618.065613,344.463867 623.079285,343.786072 628.549744,343.078430 
	C637.359375,343.051697 645.712341,343.054779 654.533508,343.033142 
	C662.688171,343.015259 670.374573,343.022125 678.528992,343.009338 
	C682.031921,343.012482 685.066895,343.035278 688.945007,343.033142 
	C690.821960,342.960602 691.855774,342.912994 692.889526,342.865417 
	C693.445190,342.940338 694.000916,343.015289 694.964111,343.196106 
	C677.255676,345.188599 660.442444,350.647186 645.146973,361.291351 
	C639.552795,358.713074 634.330383,356.429718 629.252258,353.861115 
	C623.781677,351.093903 618.446289,348.059479 613.051880,345.141663 
z"/>
<path fill="#00ACFB" opacity="1.000000" stroke="none" 
	d="
M616.175171,395.047363 
	C614.576416,398.840393 612.977600,402.633453 610.778198,406.704254 
	C607.489441,406.176483 604.715820,405.581604 602.127319,404.530731 
	C587.044373,398.407593 572.004761,392.177460 557.032349,385.633728 
	C559.085083,381.861145 561.055969,378.438293 563.304199,375.228271 
	C577.943665,381.580872 592.252869,387.850647 606.713318,393.749573 
	C609.568604,394.914368 613.006165,394.651733 616.175171,395.047363 
z"/>
<path fill="#F6B70E" opacity="1.000000" stroke="none" 
	d="
M774.273804,329.206299 
	C778.094604,327.065033 781.202698,328.128723 784.739624,329.742737 
	C797.536926,335.582581 810.526428,341.001373 823.718201,346.787781 
	C819.575867,349.648224 815.158691,352.299927 810.121033,354.745239 
	C805.304382,352.625214 801.123352,350.677521 796.908936,348.804901 
	C787.280945,344.526764 777.636780,340.285370 767.999146,336.029053 
	C770.005676,333.810211 772.012207,331.591370 774.273804,329.206299 
z"/>
<path fill="#F4AC12" opacity="1.000000" stroke="none" 
	d="
M767.692993,336.160278 
	C777.636780,340.285370 787.280945,344.526764 796.908936,348.804901 
	C801.123352,350.677521 805.304382,352.625214 809.757019,354.776001 
	C803.983521,357.031219 797.953552,359.049347 791.191284,360.859985 
	C786.844421,359.572571 783.143494,358.717560 779.632690,357.368011 
	C771.056152,354.071259 762.567627,350.545685 754.043640,347.112244 
	C758.491394,343.505341 762.939148,339.898438 767.692993,336.160278 
z"/>
<path fill="#EF9B18" opacity="1.000000" stroke="none" 
	d="
M753.708191,347.202545 
	C762.567627,350.545685 771.056152,354.071259 779.632690,357.368011 
	C783.143494,358.717560 786.844421,359.572571 790.780396,360.866150 
	C782.864685,361.675568 774.631592,362.340454 766.388306,362.834534 
	C762.909119,363.043091 759.408386,362.891846 755.446106,362.912903 
	C743.286865,362.924316 731.598938,362.926971 719.438538,362.927368 
	C718.966064,362.925079 718.522644,362.886139 718.172119,362.814026 
	C717.520081,362.670288 717.265869,362.756470 717.058838,363.000458 
	C716.310608,363.028015 715.562378,363.055603 714.445801,363.031311 
	C715.721313,362.304657 717.307800,361.341187 719.018250,361.001312 
	C731.328186,358.555573 742.813843,354.099701 753.708191,347.202545 
z"/>
<path fill="#008BF0" opacity="1.000000" stroke="none" 
	d="
M576.256897,360.062866 
	C577.180542,359.730774 578.104126,359.398682 579.650330,358.950287 
	C580.922668,358.875641 581.653320,358.736572 582.210083,358.985901 
	C591.701965,363.235413 601.064087,367.798737 610.688416,371.719452 
	C616.354187,374.027527 622.428589,375.332428 628.319214,377.088501 
	C626.482422,379.589203 624.645569,382.089935 622.222778,384.895142 
	C621.300598,385.964691 620.964417,386.729736 620.628174,387.494781 
	C620.628174,387.494781 620.677307,387.600830 620.209839,387.490326 
	C610.511780,383.594360 601.283569,379.802979 592.049805,376.025208 
	C584.679382,373.009827 577.302063,370.011078 570.088928,366.711609 
	C572.252319,364.299835 574.254578,362.181335 576.256897,360.062866 
z"/>
<path fill="#00C9EC" opacity="1.000000" stroke="none" 
	d="
M575.846802,360.038544 
	C574.254578,362.181335 572.252319,364.299835 569.843689,366.925293 
	C567.300598,369.960052 565.163757,372.487762 563.026917,375.015442 
	C561.055969,378.438293 559.085083,381.861145 556.771851,385.647644 
	C556.255493,386.021820 556.081543,386.032318 555.907593,386.042786 
	C548.140686,370.662476 546.262878,354.528778 549.882080,337.362000 
	C550.304504,337.610870 550.930176,338.326874 550.779541,338.790924 
	C548.746887,345.055359 553.421448,346.814087 557.454224,349.269226 
	C561.244568,351.576813 564.670227,354.479248 568.433044,356.837982 
	C570.585510,358.187256 573.090454,358.974121 575.846802,360.038544 
z"/>
<path fill="#0097F6" opacity="1.000000" stroke="none" 
	d="
M563.304199,375.228302 
	C565.163757,372.487762 567.300598,369.960052 569.682617,367.218628 
	C577.302063,370.011078 584.679382,373.009827 592.049805,376.025208 
	C601.283569,379.802979 610.511780,383.594360 620.161743,387.523499 
	C619.284363,389.987366 617.987610,392.307556 616.433044,394.837585 
	C613.006165,394.651733 609.568604,394.914368 606.713318,393.749573 
	C592.252869,387.850647 577.943665,381.580872 563.304199,375.228302 
z"/>
<path fill="#0065DC" opacity="1.000000" stroke="none" 
	d="
M612.622131,345.092010 
	C618.446289,348.059479 623.781677,351.093903 629.252258,353.861115 
	C634.330383,356.429718 639.552795,358.713074 644.844727,361.422852 
	C642.075928,364.149048 639.174133,366.574402 635.540405,369.018188 
	C628.798401,366.652527 622.816711,364.193451 616.771362,361.902039 
	C607.849976,358.520416 598.883362,355.258118 589.935974,351.945007 
	C592.150269,350.840118 594.364502,349.735199 596.824524,348.399261 
	C602.111023,347.126282 607.151672,346.084320 612.622131,345.092010 
z"/>
<path fill="#007CE8" opacity="1.000000" stroke="none" 
	d="
M589.603638,352.041443 
	C598.883362,355.258118 607.849976,358.520416 616.771362,361.902039 
	C622.816711,364.193451 628.798401,366.652527 635.234741,369.098938 
	C633.400696,371.690430 631.140503,374.219635 628.599731,376.918671 
	C622.428589,375.332428 616.354187,374.027527 610.688416,371.719452 
	C601.064087,367.798737 591.701965,363.235413 582.210083,358.985901 
	C581.653320,358.736572 580.922668,358.875641 579.939453,358.890442 
	C582.827759,356.677216 586.049561,354.407532 589.603638,352.041443 
z"/>
<path fill="#00BBF3" opacity="1.000000" stroke="none" 
	d="
M555.927307,386.397644 
	C556.081543,386.032318 556.255493,386.021820 556.690063,385.997406 
	C572.004761,392.177460 587.044373,398.407593 602.127319,404.530731 
	C604.715820,405.581604 607.489441,406.176483 610.572815,406.990051 
	C610.369019,409.129639 609.769958,411.261108 608.684448,413.836792 
	C605.907898,414.425385 603.310913,415.349152 601.377625,414.587799 
	C588.789490,409.630280 576.345337,404.307007 563.854126,399.103394 
	C563.854126,399.103394 563.933960,399.077271 563.832886,398.817566 
	C563.303162,398.140686 562.874573,397.723480 562.445984,397.306244 
	C562.445984,397.306244 562.562744,397.335510 562.556274,397.070496 
	C562.033020,396.212494 561.516235,395.619507 560.999512,395.026489 
	C560.999512,395.026489 560.974854,395.017639 560.962952,394.712250 
	C560.299316,393.637115 559.647522,392.867371 558.995789,392.097656 
	C557.979553,390.315948 556.963257,388.534241 555.927307,386.397644 
z"/>
<path fill="#00ACFB" opacity="1.000000" stroke="none" 
	d="
M699.957642,228.834641 
	C699.971191,234.405167 699.755676,239.988968 700.077026,245.541672 
	C700.299255,249.382935 701.262329,253.181335 701.926025,257.362488 
	C700.227905,257.740143 698.498108,257.754272 696.328674,257.757080 
	C694.756287,257.557190 693.623535,257.368591 692.142822,257.172241 
	C689.150330,257.122559 686.505859,257.080719 683.425049,256.952362 
	C679.162598,248.887711 681.410034,240.497696 681.446716,232.272736 
	C681.450073,231.518738 682.955200,230.771454 684.439697,230.083878 
	C691.058960,234.453400 694.151855,234.179962 699.957642,228.834641 
z"/>
<path fill="#00ACFB" opacity="1.000000" stroke="none" 
	d="
M700.561279,191.072479 
	C700.670044,199.819702 700.338684,208.498749 699.682678,217.510544 
	C695.990540,213.604996 691.774475,213.119492 686.869446,214.992767 
	C686.486206,215.219086 686.245300,215.504120 685.867188,216.006622 
	C685.339050,216.552750 684.948181,216.881393 684.557251,217.210022 
	C683.497498,216.557404 681.502686,215.877838 681.520630,215.256287 
	C681.734558,207.834854 682.247742,200.422043 682.833618,192.680817 
	C688.696899,191.904556 694.409058,191.454422 700.561279,191.072479 
z"/>
<path fill="#00C9EC" opacity="1.000000" stroke="none" 
	d="
M563.967163,399.425964 
	C576.345337,404.307007 588.789490,409.630280 601.377625,414.587799 
	C603.310913,415.349152 605.907898,414.425385 608.514343,414.162476 
	C608.039062,418.257599 607.247314,422.471252 606.304504,427.489075 
	C588.961426,422.893280 574.945435,413.795685 563.967163,399.425964 
z"/>
<path fill="#FCD005" opacity="1.000000" stroke="none" 
	d="
M710.541626,363.071472 
	C707.202026,363.200836 703.420898,363.272003 699.298950,363.118225 
	C702.672058,362.933258 706.386169,362.973236 710.541626,363.071472 
z"/>
<path fill="#F6B70E" opacity="1.000000" stroke="none" 
	d="
M661.581482,373.932007 
	C660.103149,375.221100 658.292664,376.596466 656.098633,378.007355 
	C657.559875,376.701355 659.404602,375.359833 661.581482,373.932007 
z"/>
<path fill="#00C9EC" opacity="1.000000" stroke="none" 
	d="
M559.094788,392.378296 
	C559.647522,392.867371 560.299316,393.637115 560.964661,394.699280 
	C560.383423,394.214111 559.788635,393.436493 559.094788,392.378296 
z"/>
<path fill="#00ACFB" opacity="1.000000" stroke="none" 
	d="
M711.761292,190.790070 
	C710.867249,191.114578 709.718140,191.299622 708.299805,191.322876 
	C709.189148,190.990921 710.347717,190.820755 711.761292,190.790070 
z"/>
<path fill="#FEDC01" opacity="1.000000" stroke="none" 
	d="
M785.169983,313.747620 
	C784.889954,314.599182 784.428101,315.672028 783.660400,316.861389 
	C783.899109,315.974884 784.443604,314.971893 785.169983,313.747620 
z"/>
<path fill="#0097F6" opacity="1.000000" stroke="none" 
	d="
M620.840454,387.272461 
	C620.964417,386.729736 621.300598,385.964691 621.959595,385.075470 
	C621.872498,385.650909 621.462646,386.350494 620.840454,387.272461 
z"/>
<path fill="#00C9EC" opacity="1.000000" stroke="none" 
	d="
M561.057617,395.311768 
	C561.516235,395.619507 562.033020,396.212494 562.535339,397.126953 
	C562.052490,396.831268 561.584106,396.214111 561.057617,395.311768 
z"/>
<path fill="#00ACFB" opacity="1.000000" stroke="none" 
	d="
M578.635254,291.881104 
	C578.357056,292.381897 577.791016,292.977966 576.887939,293.586243 
	C577.149780,293.057770 577.748596,292.517090 578.635254,291.881104 
z"/>
<path fill="#00C9EC" opacity="1.000000" stroke="none" 
	d="
M562.566162,397.583923 
	C562.874573,397.723480 563.303162,398.140686 563.812744,398.854462 
	C563.491272,398.721222 563.088745,398.291412 562.566162,397.583923 
z"/>
<path fill="#00ACFB" opacity="1.000000" stroke="none" 
	d="
M575.297119,294.512848 
	C575.318176,294.673737 575.102051,294.965576 574.625610,295.365906 
	C574.596863,295.197540 574.828491,294.920654 575.297119,294.512848 
z"/>
<path fill="#00ACFB" opacity="1.000000" stroke="none" 
	d="
M576.497864,293.608582 
	C576.520691,293.791901 576.252625,294.087128 575.723511,294.537384 
	C575.710632,294.368469 575.958862,294.044495 576.497864,293.608582 
z"/>
<path fill="#222222" opacity="1.000000" stroke="none" 
	d="
M718.551270,476.494080 
	C721.643555,481.082031 721.454041,485.300507 717.931458,489.014160 
	C714.908447,492.201202 711.092102,492.998444 707.043152,491.001587 
	C703.118164,489.065887 699.926147,486.044922 701.189392,481.438721 
	C701.949402,478.667542 704.199158,475.653168 706.641785,474.142609 
	C710.649658,471.664124 714.929077,472.578217 718.551270,476.494080 
z"/>
<path fill="#F6B70E" opacity="1.000000" stroke="none" 
	d="
M717.313965,362.973267 
	C717.265869,362.756470 717.520081,362.670288 717.949585,362.809753 
	C717.908142,362.900391 717.738647,362.923218 717.313965,362.973267 
z"/>
<path fill="#0097F6" opacity="1.000000" stroke="none" 
	d="
M692.638916,342.697388 
	C691.855774,342.912994 690.821960,342.960602 689.398804,342.999268 
	C690.135742,342.836670 691.262085,342.683014 692.638916,342.697388 
z"/>
<path fill="#222222" opacity="1.000000" stroke="none" 
	d="
M687.011780,215.051498 
	C691.774475,213.119492 695.990540,213.604996 699.681580,217.987442 
	C700.060120,221.480591 700.115112,224.829575 700.063843,228.506607 
	C694.151855,234.179962 691.058960,234.453400 684.840637,229.960419 
	C681.997009,225.878555 681.555908,221.921036 684.387817,217.541580 
	C684.948181,216.881393 685.339050,216.552750 686.083740,215.961517 
	C686.720215,215.564087 686.911621,215.348282 687.011780,215.051498 
z"/>
<path fill="#00BBF3" opacity="1.000000" stroke="none" 
	d="
M686.869446,214.992767 
	C686.911621,215.348282 686.720215,215.564087 686.220947,215.744019 
	C686.245300,215.504120 686.486206,215.219086 686.869446,214.992767 
z"/>
</svg>