<svg version="1.1" id="Layer_1" xmlns="http://www.w3.org/2000/svg" xmlns:xlink="http://www.w3.org/1999/xlink" x="0px" y="0px"
	 width="100%" viewBox="0 0 760 480" enable-background="new 0 0 760 480" xml:space="preserve">
<path fill="#979797" opacity="1.000000" stroke="none" 
	d="
M492.000000,481.000000 
	C328.000000,481.000000 164.500000,481.000000 1.000000,481.000000 
	C1.000000,321.000000 1.000000,161.000000 1.000000,1.000000 
	C254.333328,1.000000 507.666656,1.000000 761.000000,1.000000 
	C761.000000,161.000000 761.000000,321.000000 761.000000,481.000000 
	C671.500000,481.000000 582.000000,481.000000 492.000000,481.000000 
M750.457153,1.999850 
	C501.054871,1.999850 251.652573,1.999850 2.404870,1.999850 
	C2.404870,161.757538 2.404870,320.802673 2.404870,479.729858 
	C255.065842,479.729858 507.321716,479.729858 759.680847,479.729858 
	C759.680847,320.414551 759.680847,161.369675 759.680847,1.999850 
	C756.724365,1.999850 754.083801,1.999850 750.457153,1.999850 
z"/>
<path fill="#000000" opacity="1.000000" stroke="none" 
	d="
M750.950195,1.999850 
	C754.083801,1.999850 756.724365,1.999850 759.680847,1.999850 
	C759.680847,161.369675 759.680847,320.414551 759.680847,479.729858 
	C507.321716,479.729858 255.065842,479.729858 2.404870,479.729858 
	C2.404870,320.802673 2.404870,161.757538 2.404870,1.999850 
	C251.652573,1.999850 501.054871,1.999850 750.950195,1.999850 
M485.049988,221.438568 
	C479.221497,208.614853 471.337097,197.306198 460.809418,187.663559 
	C454.008270,194.094116 447.605042,200.148468 441.015686,206.378799 
	C442.546783,208.041428 443.870514,209.493896 445.210266,210.931458 
	C470.518005,238.087708 472.535553,280.381561 449.915924,309.619720 
	C422.588959,344.942688 371.678009,354.142212 334.223083,329.791565 
	C306.791107,311.957184 293.495483,286.465271 297.060852,253.377060 
	C299.189453,233.622650 309.000763,217.691650 323.323944,204.255234 
	C341.550049,187.157516 359.667816,169.944107 377.785400,152.731201 
	C379.049561,151.530212 380.811951,149.939743 380.842529,148.498550 
	C381.091370,136.772339 380.982452,125.038536 380.982452,112.601128 
	C379.721924,113.463547 379.157867,113.748329 378.718353,114.164597 
	C351.622986,139.826874 324.011292,164.971588 297.586639,191.307297 
	C265.406555,223.379028 258.975952,272.056610 280.307648,311.687286 
	C305.779755,359.010101 364.330963,381.418365 417.565643,364.217621 
	C479.357941,344.251770 509.890198,280.248169 485.049988,221.438568 
M418.844269,155.091248 
	C409.392273,157.440750 404.385437,164.310837 406.410187,172.152542 
	C408.258728,179.311813 415.440948,184.015610 422.730438,182.841064 
	C430.049866,181.661682 435.380066,175.284546 434.954926,168.215332 
	C434.497009,160.600723 428.550171,155.472122 418.844269,155.091248 
z"/>
<path fill="#EC4B2C" opacity="1.000000" stroke="none" 
	d="
M485.196289,221.788971 
	C509.890198,280.248169 479.357941,344.251770 417.565643,364.217621 
	C364.330963,381.418365 305.779755,359.010101 280.307648,311.687286 
	C258.975952,272.056610 265.406555,223.379028 297.586639,191.307297 
	C324.011292,164.971588 351.622986,139.826874 378.718353,114.164597 
	C379.157867,113.748329 379.721924,113.463547 380.982452,112.601128 
	C380.982452,125.038536 381.091370,136.772339 380.842529,148.498550 
	C380.811951,149.939743 379.049561,151.530212 377.785400,152.731201 
	C359.667816,169.944107 341.550049,187.157516 323.323944,204.255234 
	C309.000763,217.691650 299.189453,233.622650 297.060852,253.377060 
	C293.495483,286.465271 306.791107,311.957184 334.223083,329.791565 
	C371.678009,354.142212 422.588959,344.942688 449.915924,309.619720 
	C472.535553,280.381561 470.518005,238.087708 445.210266,210.931458 
	C443.870514,209.493896 442.546783,208.041428 441.015686,206.378799 
	C447.605042,200.148468 454.008270,194.094116 460.809418,187.663559 
	C471.337097,197.306198 479.221497,208.614853 485.196289,221.788971 
z"/>
<path fill="#EA4B2B" opacity="1.000000" stroke="none" 
	d="
M419.259399,155.064301 
	C428.550171,155.472122 434.497009,160.600723 434.954926,168.215332 
	C435.380066,175.284546 430.049866,181.661682 422.730438,182.841064 
	C415.440948,184.015610 408.258728,179.311813 406.410187,172.152542 
	C404.385437,164.310837 409.392273,157.440750 419.259399,155.064301 
z"/>
</svg>